<svg width="320" height="180" viewBox="0 0 320 180" fill="none" xmlns="http://www.w3.org/2000/svg">
  <defs>
    <linearGradient id="bg" x1="0" y1="0" x2="320" y2="180" gradientUnits="userSpaceOnUse">
      <stop stop-color="#0A1F4F"/>
      <stop offset="1" stop-color="#081738"/>
    </linearGradient>
    <filter id="softGlow" x="0" y="0" width="320" height="180" filterUnits="userSpaceOnUse" color-interpolation-filters="sRGB">
      <feGaussianBlur stdDeviation="12"/>
    </filter>
  </defs>

  <rect x="2" y="2" width="316" height="176" rx="28" fill="url(#bg)" stroke="#1B356D" stroke-width="4"/>

  <g opacity="0.9">
    <circle cx="68" cy="30" r="1.7" fill="#FFFFFF"/>
    <circle cx="134" cy="22" r="1.5" fill="#FFFFFF"/>
    <circle cx="209" cy="37" r="1.8" fill="#FFFFFF"/>
    <circle cx="284" cy="42" r="1.6" fill="#FFFFFF"/>
    <circle cx="260" cy="26" r="1.2" fill="#FFFFFF"/>
    <circle cx="46" cy="140" r="1.5" fill="#FFFFFF"/>
    <circle cx="108" cy="151" r="1.8" fill="#FFFFFF"/>
    <circle cx="182" cy="147" r="1.5" fill="#FFFFFF"/>
    <circle cx="254" cy="153" r="1.9" fill="#FFFFFF"/>
  </g>

  <circle cx="160" cy="90" r="62" fill="#0B3D91"/>
  <circle cx="160" cy="90" r="60" stroke="#B9D5FF" stroke-width="1.8" stroke-opacity="0.45"/>

  <g filter="url(#softGlow)" opacity="0.35">
    <path d="M36 124C76 106 123 86 172 74C222 62 258 60 294 66" stroke="#FC3D21" stroke-width="10" stroke-linecap="round"/>
  </g>
  <path d="M30 129C76 107 123 87 172 75C222 63 260 61 298 67" stroke="#FC3D21" stroke-width="7" stroke-linecap="round"/>

  <path d="M124 121C151 103 181 77 205 57" stroke="#FFFFFF" stroke-width="4.8" stroke-linecap="round"/>
  <polygon points="204,56 214,57 208,66" fill="#FFFFFF"/>

  <text x="160" y="103" text-anchor="middle" fill="#FFFFFF" font-size="49" font-family="Arial, Helvetica, sans-serif" font-weight="700" letter-spacing="4">NASA</text>
</svg>
